<svg xmlns="http://www.w3.org/2000/svg" viewBox="0 0 113.86 113.92">
  <defs>
    <style>
      .cls-1 {
        fill: #fff;
      }
    </style>
  </defs>
  <title>logo</title>
  <g id="Layer_2" data-name="Layer 2">
    <g id="Layer_1-2" data-name="Layer 1">
      <g>
        <g id="OghUpm.tif">
          <path d="M76.88,37.48C76.52,45.74,75,53,70.51,59.17c-1.79,2.46-1.27,3.84.67,5.73C78.32,71.87,85.33,79,92.39,86l-6.31,5.89C79,84.88,71.9,77.87,64.94,70.72c-1.85-1.9-3.12-2-5.42-.5C37.11,84.7,8.11,73.38,1.27,47.61-4.66,25.26,10.84,3,34.12.29c23-2.7,38.66,14.18,41.65,29.14C76.35,32.32,76.59,35.28,76.88,37.48ZM38.37,67.69c15.3,1,29.93-13.35,29.64-29.3C67.7,21.72,55.22,8.77,38.71,8.72,22,8.67,9.34,21.41,8.86,37.84,8.36,54.52,23.51,68.64,38.37,67.69Z"/>
        </g>
        <g id="JbXfsz.tif">
          <g>
            <path d="M96.45,94.91q8.35,8.62,16.73,17.2c.13.13.32.25.37.4.13.46.21.93.31,1.4-.45-.1-1,0-1.34-.32-1.06-1-2-2-3-3.06L94.58,95.25S95.62,94.06,96.45,94.91Z"/>
            <path d="M95.84,90.67A4.64,4.64,0,0,1,91,95.29a39.71,39.71,0,0,1-4.6-2.83l6.3-6.06S95.82,90.58,95.84,90.67Z"/>
          </g>
        </g>
        <path class="cls-1" d="M71.08,74.58H77.7a.39.39,0,0,1,.39.39v1.12a.39.39,0,0,1-.39.39H71.08a0,0,0,0,1,0,0v-1.9a0,0,0,0,1,0,0Z" transform="translate(-31.56 74.86) rotate(-45)"/>
        <path class="cls-1" d="M74.67,78.17h6.62a.39.39,0,0,1,.39.39v1.12a.39.39,0,0,1-.39.39H74.67a0,0,0,0,1,0,0v-1.9A0,0,0,0,1,74.67,78.17Z" transform="translate(-33.05 78.45) rotate(-45)"/>
        <path class="cls-1" d="M68.21,71.77h6.62a.39.39,0,0,1,.39.39v1.12a.39.39,0,0,1-.39.39H68.21a0,0,0,0,1,0,0v-1.9A0,0,0,0,1,68.21,71.77Z" transform="translate(-30.42 72.01) rotate(-45)"/>
        <rect class="cls-1" x="81.77" y="78.49" width="5.55" height="11.56" rx="0.66" ry="0.66" transform="translate(-34.82 84.47) rotate(-45)"/>
        <g>
          <path d="M59.44,58.61l-.31.3-.79.75c-.51.48-.8.48-1.3,0-1.18-1.2-2.36-2.39-3.51-3.62-.32-.34-.55-.35-.85,0a4.58,4.58,0,0,1-.59.57.9.9,0,0,1-1.31-.08.85.85,0,0,1,0-1.3q1.3-1.29,2.62-2.56"/>
          <path d="M58.56,59.47l.31-.3.77-.76c.49-.49.51-.79,0-1.3-1.16-1.21-2.32-2.42-3.51-3.61-.33-.33-.34-.56,0-.85a4.58,4.58,0,0,0,.58-.57.9.9,0,0,0,0-1.31.85.85,0,0,0-1.3,0Q54.08,52,52.78,53.26"/>
        </g>
      </g>
    </g>
  </g>
</svg>
